<svg viewBox="0 0 1547 439.22" version="1.1" xmlns="http://www.w3.org/2000/svg" id="Layer_2">
  
  <defs>
    <style>
      .st0 {
        fill: #ff595a;
      }
    </style>
  </defs>
  <g>
    <path d="M170.32,35.04v38.68s-33.78,0-33.78,0c-28.08,0-42.11,15.18-42.11,45.52v22.53s75.88,0,75.88,0v38.67s-74.91,0-74.91,0v220.8s-47,0-47,0V118.75c0-25.77,7.51-46.17,22.52-61.2,15.01-15,36.06-22.52,63.15-22.52h36.23Z" class="st0"></path>
    <path d="M1498.59,139.32v38.68s-44.2,0-44.2,0c-44.75,0-41.13,36.03-41.13,66.37h0v156.88s-47,0-47,0v-178.21c0-25.77,7.51-46.17,22.52-61.2,15.01-15,36.06-22.52,63.15-22.52h46.65Z" class="st0"></path>
    <rect height="363.27" width="47" y="37.98" x="476.96" class="st0"></rect>
    <rect height="363.27" width="47" y="37.98" x="572.59" class="st0"></rect>
    <path d="M703.61,395.62c-19.59-5.71-34.93-12.98-46.02-21.78l19.59-37.22c11.42,8.16,25.29,14.69,41.61,19.59,16.32,4.9,32.8,7.35,49.45,7.35,41.13,0,61.69-11.76,61.69-35.25,0-7.84-2.78-14.03-8.33-18.61-5.56-4.56-12.48-7.91-20.81-10.04-8.33-2.12-20.16-4.48-35.5-7.1-20.89-3.26-37.94-7.01-51.16-11.26-13.21-4.24-24.56-11.42-34.02-21.54-9.48-10.12-14.2-24.32-14.2-42.6,0-23.49,9.79-42.35,29.38-56.55,19.58-14.19,45.85-21.3,78.82-21.3,17.3,0,34.59,2.13,51.9,6.37,17.3,4.24,31.5,9.96,42.59,17.13l-20.07,37.21c-21.21-13.71-46.18-20.56-74.9-20.56-19.91,0-35.09,3.27-45.53,9.79-10.45,6.54-15.67,15.18-15.67,25.95,0,8.49,2.93,15.18,8.82,20.07,5.87,4.9,13.13,8.49,21.78,10.77,8.64,2.29,20.81,4.9,36.47,7.83,20.88,3.6,37.78,7.43,50.67,11.51,12.89,4.08,23.9,11.01,33.04,20.81,9.13,9.79,13.71,23.49,13.71,41.13,0,23.49-10.04,42.18-30.11,56.06-20.07,13.87-47.42,20.81-82.01,20.81-21.22,0-41.61-2.86-61.2-8.57Z" class="st0"></path>
    <path d="M1049.3,386.07c-6.85,5.87-15.34,10.36-25.46,13.47-10.12,3.09-20.56,4.65-31.33,4.65-26.11,0-46.35-7.02-60.71-21.06-14.36-14.03-21.54-34.1-21.54-60.21V84.98s47,0,47,0v56.79s74.42,0,74.42,0v38.67s-74.42,0-74.42,0v140.51c0,14.04,3.5,24.82,10.53,32.32,7.01,7.51,17.05,11.26,30.11,11.26,14.36,0,26.6-4.08,36.72-12.24l14.69,33.78Z" class="st0"></path>
  </g>
  <path d="M381.76,141.77v143.94c0,25.13-6.04,44.14-18.12,57.04-11.45,12.23-27.66,18.58-48.51,19.21-20.85-.63-37.06-6.97-48.51-19.21-12.08-12.9-18.12-31.9-18.12-57.04v-143.94s-47,0-47,0v149.32c0,37.21,9.96,65.35,29.87,84.45,19.9,19.1,47.16,28.65,81.76,28.65,0,0,2.65,0,4,0,34.6,0,61.86-9.55,81.76-28.65,19.91-19.1,29.87-47.24,29.87-84.45v-149.32s-47,0-47,0Z" class="st0"></path>
  <path d="M1318.57,271.5c0-25.46-5.81-48.22-17.38-68.29-11.59-20.07-27.59-35.74-47.98-47-20.4-11.26-43.49-16.89-69.28-16.89-25.78,0-48.95,5.63-69.52,16.89-20.57,11.27-36.64,26.93-48.22,47-11.59,20.07-17.38,42.84-17.38,68.29,0,25.46,5.79,48.22,17.38,68.29,11.58,20.07,27.66,35.83,48.22,47.25,20.57,11.43,43.74,17.14,69.52,17.14,16.31,0,31.41-2.55,45.57-7.12v-46.04c-.27.16-.5.36-.77.52-13.22,7.68-28.15,11.51-44.8,11.51-16.65,0-31.58-3.83-44.8-11.51-13.22-7.66-23.67-18.44-31.33-32.3-7.68-13.87-11.51-29.79-11.51-47.74,0-17.94,3.83-33.86,11.51-47.73,7.66-13.87,18.12-24.56,31.33-32.07,13.22-7.5,28.15-11.26,44.8-11.26,16.65,0,31.58,3.75,44.8,11.26,13.22,7.52,23.58,18.2,31.09,32.07,7.5,13.87,11.26,29.79,11.26,47.73h0v103.25s0,29.43,0,29.43h47.5s0-132.68,0-132.68h0Z" class="st0"></path>
</svg>